<?xml version="1.0" standalone="no"?>
<!DOCTYPE svg PUBLIC "-//W3C//DTD SVG 20010904//EN"
 "http://www.w3.org/TR/2001/REC-SVG-20010904/DTD/svg10.dtd">
<svg version="1.0" xmlns="http://www.w3.org/2000/svg"
 width="760.000000pt" height="760.000000pt" viewBox="0 0 760.000000 760.000000"
 preserveAspectRatio="xMidYMid meet">
<metadata>
Created by potrace 1.14, written by Peter Selinger 2001-2017
</metadata>
<g transform="translate(0.000000,760.000000) scale(0.100000,-0.100000)"
fill="#000000" stroke="none">
<path d="M930 7567 c-59 -22 -115 -83 -123 -135 -2 -12 -6 -24 -9 -28 -4 -3
-3 -17 2 -30 5 -13 6 -26 0 -29 -5 -3 -5 -18 0 -35 5 -17 5 -30 0 -30 -5 0 -5
-13 0 -30 5 -18 5 -32 -1 -36 -5 -3 -7 -10 -3 -15 3 -6 5 -36 5 -67 -1 -31 -1
-68 0 -82 0 -14 0 -31 0 -37 -1 -7 -1 -19 -2 -25 0 -7 0 -25 0 -40 1 -16 1
-40 2 -55 0 -16 0 -35 0 -43 -1 -8 -1 -27 -1 -42 l0 -28 -312 -1 c-339 -1
-334 0 -382 -23 -100 -47 -136 -192 -71 -285 30 -44 76 -78 116 -85 13 -3 164
-5 335 -5 l312 -1 1 -72 c1 -40 2 -79 1 -85 0 -7 0 -20 0 -28 0 -8 0 -22 0
-30 0 -8 0 -22 0 -30 0 -8 0 -22 0 -30 0 -8 -1 -21 -1 -27 -1 -7 0 -17 1 -23
1 -5 2 -25 1 -42 l-1 -33 -323 0 c-320 0 -324 0 -368 -23 -24 -13 -57 -43 -74
-66 -26 -37 -30 -51 -30 -110 0 -58 4 -73 29 -109 16 -23 45 -52 65 -65 35
-21 46 -22 371 -27 184 -3 332 -7 328 -8 -4 -1 -3 -13 2 -27 5 -14 5 -27 0
-30 -5 -3 -5 -18 0 -35 5 -19 5 -30 -1 -30 -6 0 -7 -4 -4 -10 3 -5 6 -36 5
-67 0 -32 0 -69 1 -83 0 -14 0 -32 0 -40 -1 -8 -1 -27 -1 -42 l0 -28 -312 0
c-191 0 -328 -4 -351 -11 -41 -11 -122 -86 -126 -117 -9 -57 -5 -130 7 -157
30 -62 121 -121 175 -114 6 1 146 1 309 0 l297 -1 -1 -60 c-1 -33 1 -63 5 -66
3 -4 2 -14 -3 -23 -5 -10 -5 -23 0 -31 4 -7 4 -24 0 -36 -6 -14 -5 -26 0 -29
5 -3 6 -16 1 -28 -4 -12 -5 -35 -1 -52 3 -16 4 -40 2 -53 -4 -23 -6 -23 -129
-21 -68 1 -126 0 -128 -2 -2 -2 -56 -2 -120 1 -64 3 -118 3 -120 1 -2 -2 -37
-3 -77 -3 -77 0 -138 -20 -170 -55 -65 -73 -74 -179 -23 -253 15 -22 46 -51
68 -64 37 -23 48 -24 188 -23 82 1 149 0 149 -3 0 -3 81 -4 179 -2 167 3 180
2 180 -15 1 -19 1 -42 1 -68 0 -8 0 -22 0 -30 0 -8 0 -22 0 -30 -1 -56 0 -124
1 -145 0 -14 0 -32 0 -40 -1 -8 -1 -27 -1 -42 l0 -28 -292 -1 c-161 -1 -296
-1 -301 0 -20 3 -101 -45 -121 -73 -23 -31 -50 -96 -39 -96 3 0 0 -6 -6 -13
-6 -8 -9 -16 -6 -18 2 -3 7 -20 10 -39 9 -50 42 -97 88 -128 l40 -27 318 -3
318 -3 -8 -22 c-5 -12 -5 -31 -1 -43 5 -11 5 -27 0 -34 -4 -7 -4 -25 0 -41 5
-15 6 -30 3 -33 -8 -8 -6 -123 2 -136 3 -5 2 -10 -4 -10 -6 0 -6 -11 -1 -29 4
-15 5 -33 1 -39 -5 -8 -99 -12 -306 -12 -316 -1 -339 -4 -384 -49 -12 -12 -21
-18 -21 -14 0 4 -9 -11 -21 -32 -28 -53 -33 -149 -10 -190 26 -47 80 -94 122
-105 22 -6 88 -11 147 -10 451 2 471 2 471 -17 1 -19 1 -42 1 -68 0 -8 0 -22
0 -30 0 -8 0 -23 0 -32 0 -25 -1 -81 -3 -126 -1 -20 1 -37 5 -37 4 0 3 -13 -2
-30 -5 -17 -5 -30 0 -30 5 0 7 -7 4 -15 -5 -13 -48 -15 -304 -15 -329 0 -348
-3 -404 -63 -42 -45 -56 -87 -52 -151 5 -87 70 -166 147 -180 13 -3 155 -5
316 -5 325 -1 293 7 293 -71 0 -19 0 -46 1 -60 0 -14 0 -32 0 -40 -3 -62 -1
-131 4 -140 3 -5 2 -10 -4 -10 -6 0 -6 -11 -1 -29 4 -15 5 -33 1 -39 -4 -7
-109 -12 -318 -14 l-311 -3 -43 -30 c-42 -30 -74 -78 -83 -125 -2 -14 -5 -27
-6 -30 -3 -6 -3 -7 5 -52 12 -67 81 -140 146 -152 13 -3 156 -5 318 -5 162 -1
292 -4 288 -7 -3 -3 -2 -17 3 -30 5 -13 6 -26 0 -29 -5 -3 -5 -18 0 -35 5 -17
5 -30 0 -30 -4 0 -5 -15 -1 -32 4 -18 5 -44 1 -58 -3 -14 -3 -42 0 -62 4 -20
4 -42 -1 -49 -4 -7 -4 -20 1 -29 5 -9 5 -22 0 -30 -5 -8 -5 -21 0 -30 5 -9 5
-22 0 -30 -5 -8 -6 -18 -3 -23 3 -5 5 -37 5 -72 0 -122 70 -202 184 -212 49
-4 66 -1 104 19 74 40 117 122 111 213 -2 31 -3 91 -1 100 4 24 1 116 -5 125
-3 6 -2 10 3 10 4 0 6 23 2 50 -4 28 -4 52 -2 55 3 3 4 26 3 53 -1 26 -1 53
-1 60 0 6 0 20 0 30 -1 54 1 67 8 74 5 5 94 7 198 6 l189 -3 3 -25 c1 -14 2
-31 2 -37 0 -7 0 -20 0 -28 0 -8 0 -22 0 -30 0 -8 0 -22 0 -30 0 -8 0 -22 0
-30 0 -8 0 -22 0 -30 0 -8 0 -22 0 -30 0 -8 0 -22 0 -30 0 -8 0 -22 0 -30 0
-8 0 -22 0 -30 0 -8 0 -22 0 -30 0 -8 0 -22 0 -30 0 -8 0 -22 0 -30 0 -8 0
-22 0 -30 0 -8 0 -22 0 -30 0 -8 0 -22 0 -30 -2 -162 26 -225 122 -268 47 -22
108 -22 155 1 94 43 125 100 123 227 -1 22 -1 56 -1 75 1 28 0 124 0 195 0 6
0 44 0 85 0 41 0 84 0 95 0 11 0 39 1 63 l2 43 42 -2 c23 -2 47 0 53 4 5 3 13
4 16 1 3 -3 69 -5 147 -5 l141 0 -1 -57 c-1 -31 -1 -61 0 -67 1 -5 2 -13 1
-17 -1 -10 -2 -291 -1 -303 0 -5 1 -53 1 -105 1 -139 35 -200 137 -240 115
-45 253 51 259 180 1 25 2 61 3 80 1 19 1 81 0 137 -1 57 1 107 4 112 4 5 2
12 -4 16 -6 4 -8 11 -5 16 4 5 6 62 6 128 l-1 119 43 -1 c24 0 48 3 54 6 6 4
13 4 16 1 8 -8 132 -8 145 0 5 3 12 3 15 -1 4 -3 33 -6 64 -7 l58 -1 0 -32 c0
-18 3 -33 7 -33 3 0 3 -13 -2 -30 -5 -16 -6 -30 -2 -30 4 0 6 -19 4 -42 -1
-24 -3 -49 -2 -55 0 -7 0 -20 0 -28 0 -8 0 -22 0 -30 0 -8 0 -22 0 -30 0 -8 0
-22 0 -30 0 -8 0 -22 0 -30 0 -8 0 -22 0 -30 0 -8 0 -22 0 -30 0 -8 0 -22 0
-30 0 -8 0 -22 0 -30 0 -8 0 -21 -1 -27 -2 -62 11 -148 28 -178 49 -87 168
-124 258 -80 61 29 102 87 112 154 4 28 6 56 4 61 -2 6 -3 20 -2 33 2 26 2 32
1 97 0 52 0 134 0 160 0 8 0 22 0 30 0 8 0 34 0 58 0 23 1 66 2 95 2 28 0 52
-4 52 -3 0 -4 9 -1 20 5 20 12 20 202 18 l196 -3 0 -27 c-1 -16 2 -28 6 -28 4
0 3 -16 -1 -35 -4 -19 -4 -35 0 -35 5 0 5 -13 0 -29 -4 -16 -6 -32 -3 -35 7
-7 8 -105 0 -112 -3 -3 -1 -18 3 -34 4 -16 6 -31 3 -34 -3 -3 -5 -32 -4 -63 2
-57 2 -70 0 -95 -2 -43 11 -139 21 -157 53 -99 170 -137 269 -88 48 24 97 86
105 132 5 25 7 126 5 195 0 8 0 44 0 80 0 36 0 83 1 105 0 22 0 63 1 92 1 28
-2 56 -6 62 -3 6 -2 11 4 11 6 0 7 11 2 28 -5 15 -4 37 0 50 8 22 10 22 204
22 l195 0 1 -72 c1 -40 0 -77 -1 -83 -1 -8 0 -219 1 -270 1 -5 0 -30 0 -55 -3
-83 5 -175 18 -204 6 -16 25 -42 41 -58 98 -93 254 -68 317 52 24 45 23 17 23
557 l0 132 198 -2 197 -2 3 -25 c1 -14 2 -35 2 -47 -1 -46 -1 -59 0 -117 0
-32 -2 -61 -4 -63 -2 -3 -1 -17 3 -31 5 -15 5 -36 1 -47 -4 -11 -4 -34 1 -52
4 -18 3 -33 -1 -33 -4 0 -4 -18 0 -40 4 -22 4 -40 -1 -40 -5 0 -6 -6 -4 -12 3
-7 7 -44 9 -83 4 -80 24 -125 69 -158 50 -37 93 -50 148 -45 88 9 158 76 174
167 8 47 9 180 2 187 -4 4 -2 14 3 24 5 10 7 20 3 23 -6 7 -6 70 0 117 2 14 0
34 -4 45 -3 11 -3 29 1 40 4 11 4 28 1 39 -4 10 -4 40 -1 67 4 27 3 49 -1 49
-4 0 -5 9 -2 20 5 20 12 20 202 18 l196 -3 0 -27 c-1 -16 2 -28 6 -28 4 0 4
-13 -1 -30 -5 -17 -5 -30 0 -30 5 0 5 -13 0 -30 -5 -17 -5 -30 0 -30 5 0 5
-13 0 -30 -5 -17 -5 -30 0 -30 5 0 5 -13 0 -30 -5 -17 -5 -30 0 -30 5 0 5 -13
0 -30 -5 -17 -5 -30 0 -30 5 0 5 -13 0 -30 -5 -17 -5 -30 0 -30 5 0 5 -13 0
-30 -5 -17 -5 -30 0 -30 5 0 5 -13 0 -30 -5 -16 -6 -30 -2 -30 4 0 7 -28 8
-63 2 -110 68 -183 176 -194 68 -7 134 21 174 72 34 45 44 85 44 180 -1 83 0
137 1 217 0 26 -2 52 -6 58 -3 5 -1 10 5 10 6 0 8 5 5 10 -4 6 -6 34 -6 63 0
29 1 73 0 100 l0 47 314 0 c358 0 386 4 434 68 46 61 52 77 49 138 -4 67 -25
114 -64 145 -61 47 -76 49 -413 49 l-319 0 3 55 c1 30 -1 55 -5 55 -3 0 -4 8
-2 17 6 27 10 143 4 143 -3 0 -3 29 -2 65 l4 64 175 3 c96 2 176 1 178 -2 2
-3 38 -3 80 0 42 3 79 3 81 1 14 -14 151 5 182 25 75 49 102 99 98 182 -3 71
-29 117 -85 157 l-43 30 -306 3 c-169 2 -319 3 -334 3 l-28 -1 0 72 c-1 73 0
90 3 161 1 20 0 37 -3 37 -3 0 -4 29 -2 64 l4 65 94 3 c53 2 101 1 109 -2 8
-3 114 -3 237 0 170 4 229 9 248 20 74 43 115 117 107 194 -5 58 -19 88 -59
128 -56 57 -58 57 -408 58 -178 0 -325 2 -327 4 -3 3 -4 20 -2 103 0 29 -2 57
-6 63 -3 5 -1 10 5 10 6 0 8 5 5 10 -4 6 -6 34 -6 63 1 29 1 73 1 99 l0 47
334 3 334 3 42 30 c80 56 110 155 74 241 -20 50 -76 101 -123 114 -21 6 -169
10 -348 10 l-313 0 -1 23 c-1 12 0 27 1 32 5 20 1 105 -5 115 -3 5 -1 10 5 10
6 0 8 5 5 10 -4 6 -6 34 -6 63 0 29 1 73 0 99 l0 47 313 3 c332 3 330 3 383
53 33 31 57 74 60 109 1 17 4 36 5 41 5 15 -11 66 -30 100 -23 41 -89 86 -133
90 -45 4 -118 7 -132 6 -21 -3 -459 0 -462 3 -3 3 -4 21 -2 103 0 29 -2 57 -6
63 -3 5 -1 10 5 10 6 0 8 5 5 10 -6 9 -8 76 -4 120 1 8 0 20 -1 25 -1 6 -2 22
-1 37 l1 27 283 1 c155 0 293 2 307 4 100 12 177 110 167 213 -6 58 -29 105
-65 134 -60 47 -77 49 -392 49 l-297 0 -2 33 c-1 17 -2 50 -1 72 0 22 0 51 -1
65 0 14 0 32 0 40 3 52 2 111 -3 119 -4 5 -2 12 3 16 7 3 7 15 1 30 l-9 24
317 3 c336 3 334 3 387 53 33 31 57 74 60 109 1 17 4 36 5 41 5 15 -11 66 -30
100 -22 40 -90 86 -131 90 -19 2 -161 4 -316 4 l-283 1 0 68 c0 70 0 124 1
204 0 26 -2 51 -5 56 -2 4 -1 14 4 22 5 8 4 22 -1 33 -10 17 -6 18 65 16 42
-1 79 0 82 3 3 3 21 2 40 -2 19 -4 36 -4 39 0 3 4 21 4 40 0 19 -4 37 -4 40 0
3 4 21 4 40 0 19 -4 37 -4 40 0 3 4 21 4 40 0 19 -4 37 -4 40 0 3 4 20 4 39 0
19 -4 37 -5 40 -2 3 2 24 6 47 7 26 2 56 13 82 31 115 81 113 253 -4 331 -48
32 -46 32 -387 32 l-283 1 4 55 c1 30 0 55 -3 55 -3 0 -4 26 -2 57 5 96 4 152
-3 163 -3 5 -1 10 5 10 6 0 8 5 5 10 -4 6 -6 34 -6 63 1 29 1 63 0 77 0 14 0
32 0 40 7 106 -12 168 -66 217 -101 93 -272 54 -317 -72 -4 -11 -7 -20 -7 -20
0 0 -4 -17 -8 -37 -5 -21 -5 -38 -1 -38 5 0 5 -13 0 -30 -5 -17 -5 -30 0 -30
5 0 5 -13 0 -30 -5 -17 -5 -30 0 -30 5 0 5 -13 0 -30 -5 -17 -5 -30 0 -30 5 0
5 -13 0 -30 -5 -17 -5 -30 0 -30 5 0 5 -13 0 -30 -5 -17 -5 -30 0 -30 5 0 5
-13 0 -30 -5 -17 -5 -30 0 -30 5 0 5 -13 0 -30 -5 -17 -5 -30 0 -30 5 0 5 -13
0 -30 -5 -16 -5 -30 -1 -30 4 0 6 -13 3 -30 l-4 -30 -204 0 -204 0 8 23 c4 12
6 37 4 55 -1 17 -2 39 -2 47 0 8 0 22 0 30 0 8 0 36 0 63 0 26 1 70 1 99 0 29
-2 57 -6 63 -3 5 -3 10 2 10 4 0 7 21 5 47 -2 47 -3 80 -1 106 2 23 -12 82
-27 114 -38 82 -151 123 -244 90 -64 -23 -118 -87 -127 -150 -6 -48 -9 -207
-3 -207 6 0 3 -129 -4 -146 -3 -8 -1 -16 3 -19 5 -3 6 -20 2 -37 -4 -18 -4
-47 0 -65 3 -18 4 -35 1 -38 -3 -3 -5 -23 -5 -45 l1 -41 -199 1 -199 1 0 295
c0 162 0 296 0 299 1 19 -35 83 -60 106 -62 60 -151 75 -226 38 -41 -19 -95
-77 -102 -109 -13 -55 -17 -164 -6 -181 2 -4 0 -10 -6 -14 -6 -4 -8 -10 -6
-14 4 -6 7 -71 5 -111 0 -8 0 -80 1 -160 l2 -145 -200 -3 -200 -3 0 59 c1 33
-2 64 -6 71 -4 6 -3 11 3 11 6 0 7 11 3 28 -4 15 -6 38 -5 52 6 59 8 170 3
170 -3 0 -4 24 -2 52 8 157 -5 211 -65 265 -60 55 -142 67 -218 33 -63 -29
-104 -87 -112 -160 -4 -39 -4 -34 -2 -108 1 -29 0 -55 -4 -58 -3 -3 -1 -18 3
-34 4 -16 6 -31 3 -34 -8 -7 -7 -116 1 -123 3 -3 1 -13 -4 -22 -5 -10 -5 -23
0 -31 5 -8 5 -21 0 -30 -5 -9 -5 -22 0 -30 5 -8 5 -21 0 -30 -5 -9 -5 -22 -1
-29 5 -7 6 -22 4 -32 -5 -18 -18 -19 -206 -19 -110 0 -198 3 -195 6 4 3 2 19
-2 35 -5 16 -6 29 -2 29 4 0 6 21 4 47 -1 27 -2 58 -2 71 1 35 1 44 0 97 0 28
1 71 1 98 1 26 -1 50 -4 54 -4 3 -2 13 3 23 5 10 7 20 3 23 -3 4 -6 33 -5 65
0 97 -41 162 -127 198 -70 29 -155 11 -212 -47 -41 -42 -57 -82 -55 -142 1
-20 -2 -37 -5 -37 -4 0 -3 -17 1 -38 3 -21 3 -47 0 -58 -4 -10 -4 -28 0 -39 4
-11 4 -29 0 -40 -4 -11 -4 -29 0 -40 4 -11 4 -29 0 -40 -4 -11 -4 -30 1 -41 4
-12 5 -24 3 -27 -7 -7 -8 -136 -2 -142 3 -3 3 -17 0 -30 l-4 -25 -199 0 -199
1 -1 137 c0 75 0 148 0 162 -1 14 0 79 0 145 1 179 -5 204 -60 257 -61 59
-150 74 -225 37 -40 -19 -94 -76 -103 -109 -6 -23 -11 -178 -11 -325 1 -71 1
-139 0 -150 0 -24 1 -106 2 -114 4 -42 8 -41 -203 -41 l-200 0 4 38 c2 20 0
52 -4 70 -4 17 -3 34 1 37 4 3 5 20 1 37 -3 18 -5 47 -4 63 2 17 3 68 2 115
-1 88 -1 96 1 170 1 82 -18 132 -67 177 -113 104 -294 45 -330 -107 -6 -27 -5
-109 2 -119 3 -6 2 -11 -4 -11 -6 0 -6 -11 -1 -30 5 -17 5 -30 0 -30 -5 0 -5
-13 0 -30 5 -17 5 -30 0 -30 -5 0 -5 -13 0 -30 5 -17 5 -30 0 -30 -5 0 -5 -13
0 -30 5 -17 5 -32 0 -35 -5 -3 -6 -16 -1 -28 5 -12 5 -31 1 -42 -4 -11 -4 -29
0 -40 4 -11 4 -29 0 -40 -4 -11 -4 -30 1 -41 4 -12 5 -25 2 -28 -4 -3 -95 -6
-204 -6 l-197 0 -4 25 c-3 14 -2 28 3 31 5 2 5 15 0 27 -4 12 -5 33 -1 47 4
14 3 34 -1 46 -4 11 -4 27 1 34 5 7 5 23 1 34 -4 12 -5 32 -1 46 4 14 3 34 -1
46 -4 11 -4 27 1 34 5 7 5 23 1 34 -4 12 -5 32 -1 46 4 14 3 34 -1 46 -4 11
-3 27 1 34 5 8 7 17 5 20 -2 4 -7 22 -10 41 -22 128 -143 199 -265 156z m5467
-1160 c-3 -8 -1 -20 3 -27 4 -7 5 -23 0 -34 -4 -11 -4 -33 1 -48 4 -16 4 -28
-1 -28 -5 0 -5 -13 0 -30 5 -17 5 -30 0 -30 -5 0 -5 -13 0 -30 5 -17 5 -30 0
-30 -5 0 -5 -13 0 -30 5 -17 5 -30 0 -30 -5 0 -5 -13 0 -30 5 -17 5 -30 0 -30
-5 0 -5 -13 0 -30 5 -17 5 -30 0 -30 -5 0 -5 -13 0 -30 5 -17 5 -30 0 -30 -5
0 -5 -13 0 -30 5 -17 5 -30 0 -30 -5 0 -5 -13 0 -30 5 -17 5 -30 0 -30 -5 0
-5 -13 0 -30 5 -17 5 -30 0 -30 -5 0 -5 -13 0 -30 5 -17 5 -30 0 -30 -5 0 -5
-13 0 -30 5 -17 5 -30 0 -30 -5 0 -5 -13 0 -30 5 -17 5 -30 0 -30 -5 0 -5 -13
0 -30 5 -17 5 -30 0 -30 -5 0 -5 -13 0 -30 5 -17 5 -30 0 -30 -5 0 -5 -13 0
-30 5 -17 5 -30 0 -30 -5 0 -5 -13 0 -30 5 -17 5 -30 0 -30 -5 0 -5 -13 0 -30
5 -17 5 -30 0 -30 -5 0 -5 -13 0 -30 5 -17 5 -32 0 -35 -5 -3 -5 -16 0 -30 6
-15 6 -27 0 -30 -5 -3 -6 -15 -1 -26 4 -12 4 -43 1 -70 -4 -27 -3 -49 1 -49 4
0 4 -13 -1 -30 -5 -17 -5 -30 0 -30 5 0 5 -13 0 -30 -5 -17 -5 -30 0 -30 5 0
5 -13 0 -30 -5 -17 -5 -30 0 -30 5 0 5 -13 0 -30 -5 -17 -5 -30 0 -30 5 0 5
-13 0 -30 -5 -17 -5 -30 0 -30 5 0 5 -13 0 -30 -5 -17 -5 -30 0 -30 5 0 5 -13
0 -30 -5 -17 -5 -30 0 -30 5 0 5 -13 0 -30 -5 -17 -5 -30 0 -30 5 0 5 -13 0
-30 -5 -17 -5 -30 0 -30 5 0 5 -13 0 -30 -5 -17 -5 -30 0 -30 5 0 5 -13 0 -30
-5 -17 -5 -30 0 -30 5 0 5 -13 0 -30 -5 -17 -5 -30 0 -30 5 0 5 -13 0 -30 -5
-17 -5 -30 0 -30 5 0 5 -13 0 -30 -5 -17 -5 -30 0 -30 5 0 5 -13 0 -30 -5 -17
-5 -30 0 -30 5 0 5 -13 0 -30 -5 -17 -5 -30 0 -30 5 0 5 -13 0 -30 -5 -16 -6
-30 -2 -30 4 0 7 -43 7 -95 0 -52 -3 -95 -7 -95 -4 0 -3 -13 2 -30 5 -17 5
-30 0 -30 -5 0 -5 -13 0 -30 5 -17 5 -30 0 -30 -5 0 -5 -13 0 -30 5 -17 5 -30
0 -30 -5 0 -5 -13 0 -30 5 -17 5 -30 0 -30 -5 0 -5 -13 0 -30 5 -17 5 -30 0
-30 -5 0 -5 -13 0 -30 5 -17 5 -30 0 -30 -5 0 -5 -13 0 -30 5 -17 5 -30 0 -30
-5 0 -5 -13 0 -30 5 -17 5 -30 0 -30 -5 0 -5 -13 0 -30 5 -17 5 -30 0 -30 -5
0 -5 -13 0 -30 5 -17 5 -30 0 -30 -5 0 -5 -13 0 -30 5 -17 5 -30 0 -30 -5 0
-5 -13 0 -30 5 -17 5 -30 0 -30 -5 0 -5 -13 0 -30 5 -17 5 -30 0 -30 -5 0 -5
-13 0 -30 5 -17 5 -30 0 -30 -5 0 -5 -13 0 -30 5 -17 5 -30 0 -30 -5 0 -5 -13
0 -30 5 -17 5 -30 0 -30 -5 0 -5 -13 0 -30 5 -17 5 -30 0 -30 -5 0 -5 -13 0
-30 5 -17 5 -30 0 -30 -5 0 -5 -13 0 -30 5 -17 5 -32 0 -35 -5 -3 -5 -16 0
-30 6 -15 6 -27 0 -30 -5 -3 -6 -16 -2 -28 5 -12 5 -38 2 -57 -3 -19 -3 -47 1
-63 4 -15 4 -27 -1 -27 -5 0 -5 -13 0 -30 5 -17 5 -30 0 -30 -5 0 -5 -13 0
-30 5 -17 5 -30 0 -30 -5 0 -5 -13 0 -30 5 -17 5 -30 0 -30 -5 0 -5 -13 0 -30
5 -17 5 -30 0 -30 -5 0 -5 -13 0 -30 5 -17 5 -30 0 -30 -5 0 -5 -13 0 -30 5
-17 5 -30 0 -30 -5 0 -5 -13 0 -30 5 -17 5 -30 0 -30 -5 0 -5 -13 0 -30 5 -17
5 -30 0 -30 -5 0 -5 -13 0 -30 5 -17 5 -30 0 -30 -5 0 -5 -13 0 -30 5 -17 5
-30 0 -30 -5 0 -5 -13 0 -30 5 -17 5 -30 0 -30 -5 0 -5 -13 0 -30 5 -17 5 -30
0 -30 -5 0 -5 -13 0 -30 5 -17 5 -30 0 -30 -5 0 -5 -13 0 -30 5 -17 5 -30 0
-30 -5 0 -5 -13 0 -30 5 -17 5 -30 0 -30 -5 0 -5 -13 0 -30 5 -17 5 -32 0 -35
-5 -3 -5 -16 0 -30 6 -15 6 -27 0 -30 -5 -3 -6 -15 -1 -28 5 -12 5 -32 0 -44
-4 -12 -4 -25 1 -28 4 -3 6 -14 3 -25 -5 -20 -12 -20 -1396 -20 -764 0 -1391
-1 -1393 -2 -1 -2 -55 -1 -119 2 -64 3 -118 3 -120 0 -2 -3 -56 -3 -120 0 -64
3 -118 3 -120 0 -2 -3 -56 -3 -120 0 -64 3 -118 3 -120 0 -2 -3 -56 -3 -120 0
-64 3 -118 3 -120 0 -2 -3 -56 -3 -120 0 -64 3 -118 3 -120 0 -2 -3 -56 -3
-120 0 -64 3 -118 3 -120 0 -2 -3 -56 -3 -120 0 -64 3 -118 3 -120 0 -2 -3
-56 -3 -120 0 -64 3 -118 3 -120 0 -2 -3 -56 -3 -120 0 -64 3 -118 3 -120 0
-2 -3 -59 -4 -127 -2 -88 2 -125 7 -125 15 -1 7 -3 26 -6 44 -2 18 -2 35 1 38
8 7 5 112 -3 125 -3 6 -2 10 3 10 4 0 6 23 2 50 -4 28 -4 52 -2 55 3 3 4 26 3
53 -1 26 -1 53 -1 60 0 6 0 18 0 25 0 6 0 30 -1 52 0 22 0 45 1 50 4 24 1 116
-5 125 -3 6 -2 10 3 10 4 0 6 23 2 50 -4 28 -4 52 -2 55 3 3 4 26 3 53 -1 26
-1 53 -1 60 0 6 0 18 0 25 0 6 0 30 -1 52 0 22 0 45 1 50 4 24 1 116 -5 125
-3 6 -3 10 2 10 8 0 8 91 0 114 -3 7 -1 19 3 26 5 7 5 23 1 34 -4 12 -5 32 -1
46 4 14 3 34 -1 46 -4 11 -4 27 1 34 5 7 5 23 1 34 -4 12 -5 32 -1 46 4 14 3
34 -1 46 -4 11 -4 27 1 34 5 7 5 23 1 34 -4 12 -5 32 -1 46 4 14 3 34 -1 46
-4 11 -4 27 1 34 5 7 5 23 1 34 -4 12 -5 32 -1 46 4 14 3 34 -1 46 -4 11 -4
27 1 34 5 7 5 23 1 34 -4 12 -5 32 -1 46 4 14 3 34 -1 46 -4 11 -4 27 1 34 5
7 5 23 1 34 -4 12 -5 32 -1 46 4 14 3 34 -1 46 -4 11 -4 27 1 34 5 7 5 23 1
34 -4 12 -5 32 -1 46 4 14 3 34 -1 46 -4 11 -4 27 1 34 5 7 5 23 1 34 -4 12
-4 37 -1 56 3 19 3 47 -1 63 -4 15 -4 27 0 27 4 0 5 23 1 50 -4 28 -4 52 -2
55 3 3 4 26 3 53 -1 26 -1 53 -1 60 0 6 0 18 0 25 0 6 0 30 -1 52 0 22 0 45 1
50 4 24 1 116 -5 125 -3 6 -2 10 3 10 4 0 6 23 2 50 -4 28 -4 52 -2 55 3 3 4
26 3 53 -1 26 -1 53 -1 60 0 6 0 18 0 25 0 6 0 30 -1 52 0 22 0 45 1 50 4 24
1 116 -5 125 -3 6 -2 10 3 10 4 0 6 23 2 50 -4 28 -4 52 -2 55 3 3 4 26 3 53
-1 26 -1 53 -1 60 0 6 0 18 0 25 0 6 0 30 -1 52 0 22 0 45 1 50 4 24 1 116 -5
125 -3 6 -2 10 3 10 4 0 6 23 2 50 -4 28 -4 52 -2 55 3 3 4 26 3 53 -1 26 -1
53 -1 60 0 6 0 18 0 25 0 6 0 30 -1 52 0 22 0 45 1 50 4 24 1 116 -5 125 -3 6
-2 10 3 10 4 0 6 23 2 50 -4 28 -4 52 -2 55 3 3 4 26 3 53 -1 26 -1 53 -1 60
0 6 0 18 0 25 0 6 0 30 -1 52 0 22 0 45 1 50 4 24 1 116 -5 125 -3 6 -3 10 2
10 4 0 8 29 8 65 0 36 -3 65 -7 65 -3 0 -4 9 -1 20 5 20 14 20 2605 20 2170 0
2599 -2 2595 -13z"/>
<path d="M2421 5325 c-45 -15 -97 -61 -117 -103 -16 -34 -24 -83 -24 -157 0
-149 1 -168 6 -176 3 -5 0 -9 -6 -9 -8 0 -8 -6 0 -20 6 -11 7 -20 1 -20 -5 0
-6 -14 -1 -33 4 -18 4 -42 0 -52 -4 -11 -6 -29 -4 -40 4 -22 4 -29 5 -130 0
-70 0 -84 -2 -107 -1 -15 0 -124 1 -153 1 -11 1 -27 1 -35 -2 -54 0 -114 5
-121 3 -5 0 -9 -6 -9 -8 0 -8 -6 0 -20 6 -11 7 -20 1 -20 -5 0 -6 -14 -2 -33
5 -18 5 -41 1 -51 -3 -10 -3 -40 0 -67 4 -27 3 -49 -2 -49 -5 0 -4 -9 2 -20 6
-11 7 -20 1 -20 -5 0 -6 -14 -1 -33 4 -18 4 -42 0 -52 -4 -11 -6 -29 -4 -40 4
-22 4 -29 5 -130 0 -70 0 -84 -2 -107 -1 -15 0 -124 1 -153 1 -11 1 -27 1 -35
-2 -54 0 -114 5 -121 3 -5 0 -9 -6 -9 -8 0 -8 -6 0 -20 6 -11 7 -20 1 -20 -5
0 -6 -14 -2 -33 5 -18 5 -41 1 -51 -3 -10 -3 -40 0 -67 4 -27 3 -49 -2 -49 -5
0 -4 -9 2 -20 6 -11 7 -20 1 -20 -5 0 -6 -14 -1 -33 4 -18 4 -42 0 -52 -4 -11
-6 -29 -4 -40 2 -11 4 -29 4 -40 1 -34 1 -159 0 -175 -4 -153 22 -214 112
-261 35 -18 82 -19 1393 -19 977 0 1368 3 1401 11 53 14 118 81 128 133 9 48
9 243 0 258 -3 4 -1 8 3 8 5 0 7 26 6 58 -1 31 -3 82 -3 112 0 103 -1 134 -6
142 -3 4 -1 8 3 8 5 0 7 26 6 58 -1 31 -3 82 -3 112 0 103 -1 134 -6 142 -3 4
-1 8 3 8 5 0 7 26 6 58 -1 31 -3 82 -3 112 0 103 -1 134 -6 142 -3 4 -1 8 3 8
5 0 7 26 6 58 -1 31 -3 82 -3 112 0 103 -1 134 -6 142 -3 4 -1 8 3 8 5 0 7 26
6 58 -1 31 -3 82 -3 112 0 103 -1 134 -6 142 -3 4 -1 8 3 8 5 0 7 26 6 58 -1
31 -3 82 -3 112 0 103 -1 134 -6 142 -3 4 -1 8 3 8 5 0 7 26 6 58 -1 31 -3 82
-3 112 0 103 -1 134 -6 142 -3 4 -1 8 3 8 8 0 8 40 -1 180 -2 36 -11 79 -20
97 -19 36 -67 79 -105 96 -35 14 -2728 17 -2770 2z m590 -387 c16 0 29 -1 29
-3 0 -2 -81 -86 -180 -187 l-179 -183 0 188 1 188 135 -2 c74 0 137 2 140 5 3
3 10 3 16 -1 5 -3 23 -6 38 -5z m1532 1 l101 2 -19 -22 c-11 -12 -449 -452
-972 -978 -524 -526 -953 -959 -953 -963 0 -5 -4 -8 -10 -8 -6 0 -10 44 -10
113 l0 112 501 505 c994 1003 1242 1249 1251 1244 6 -4 55 -6 111 -5z m-714
-16 c-8 -9 -269 -273 -581 -587 l-567 -571 0 65 c0 36 0 70 -1 75 -1 6 -2 28
-1 50 1 43 26 69 723 773 l211 212 115 0 c106 0 113 -1 101 -17z m1090 -358
c1 -33 1 -83 2 -112 l0 -52 -431 -428 c-237 -235 -623 -618 -857 -850 l-425
-423 -114 0 c-63 0 -114 2 -114 4 0 7 1933 1926 1937 1923 1 -1 2 -29 2 -62z
m2 -802 c1 -38 1 -71 0 -76 -1 -4 -2 -25 -3 -47 -1 -38 -16 -54 -456 -490
l-454 -450 -114 0 c-63 0 -114 2 -114 4 0 9 1103 1096 1112 1096 5 0 8 7 8 15
0 8 5 15 10 15 6 0 11 -30 11 -67z m-1 -793 c0 -30 1 -103 1 -162 l0 -108
-171 0 c-93 0 -170 2 -170 4 0 7 333 326 337 323 1 -2 2 -27 3 -57z"/>
</g>
</svg>
